<svg xmlns="http://www.w3.org/2000/svg" version="1.1" xmlns:xlink="http://www.w3.org/1999/xlink" xmlns:svgjs="http://svgjs.dev/svgjs" width="1200" height="600" preserveAspectRatio="none" viewBox="0 0 1200 600">
    <g mask="url(&quot;#SvgjsMask1029&quot;)" fill="none">
        <path d="M838.9269209502005 304.7858388015643L890.520506885426 188.90474749346026 774.639415577322 137.31116155823472 723.0458296420965 253.19225286633875z" fill="rgba(235, 189, 23, 1)" class="triangle-float3"></path>
        <path d="M212.651520504672 378.0643220436034L72.57336433504423 293.7150757317942 67.58494996123957 436.5645732202023z" fill="rgba(235, 189, 23, 1)" class="triangle-float1"></path>
        <path d="M877.856,787.461C931.361,787.804,974.354,748.721,1001.111,702.386C1027.872,656.043,1039.659,599.6,1013.199,553.084C986.492,506.134,931.837,483.821,877.856,485.705C827.111,487.476,782.764,517.697,757.942,561.992C733.695,605.261,734.016,657.032,757.306,700.824C782.21,747.65,824.82,787.121,877.856,787.461" fill="rgba(235, 189, 23, 1)" class="triangle-float3"></path>
        <path d="M177.7556377795058 141.62970159160017L277.5143539064138 170.23505313021386 306.11970544502753 70.47633700330582 206.3609893181195 41.87098546469214z" fill="rgba(235, 189, 23, 1)" class="triangle-float3"></path>
        <path d="M135.7479461790988 521.3266673160963L173.7089585646633 443.49505779173404 37.981038085337715 425.4693439755684z" fill="rgba(235, 189, 23, 1)" class="triangle-float1"></path>
    </g>
    <defs>
        <mask id="SvgjsMask1029">
            <rect width="1200" height="600" fill="#ffffff"></rect>
        </mask>
        <style>
            @keyframes float1 {
                    0%{transform: translate(0, 0)}
                    50%{transform: translate(-10px, 0)}
                    100%{transform: translate(0, 0)}
                }

                .triangle-float1 {
                    animation: float1 5s infinite;
                }

                @keyframes float2 {
                    0%{transform: translate(0, 0)}
                    50%{transform: translate(-5px, -5px)}
                    100%{transform: translate(0, 0)}
                }

                .triangle-float2 {
                    animation: float2 4s infinite;
                }

                @keyframes float3 {
                    0%{transform: translate(0, 0)}
                    50%{transform: translate(0, -10px)}
                    100%{transform: translate(0, 0)}
                }

                .triangle-float3 {
                    animation: float3 6s infinite;
                }
        </style>
    </defs>
</svg>